<?xml version="1.0" standalone="no"?>
<!DOCTYPE svg PUBLIC "-//W3C//DTD SVG 20010904//EN"
 "http://www.w3.org/TR/2001/REC-SVG-20010904/DTD/svg10.dtd">
<svg version="1.0" xmlns="http://www.w3.org/2000/svg"
 width="512.000000pt" height="512.000000pt" viewBox="0 0 512.000000 512.000000"
 preserveAspectRatio="xMidYMid meet">

<g transform="translate(0.000000,512.000000) scale(0.100000,-0.100000)"
fill="#000000" stroke="none">
<path d="M1802 4670 c-277 -73 -465 -286 -516 -582 l-7 -38 163 0 163 0 13 53
c25 108 134 220 248 253 44 13 183 14 1005 12 l954 -3 73 -27 c120 -45 173
-79 268 -173 103 -102 150 -183 184 -319 19 -76 20 -112 20 -1006 0 -788 -2
-934 -15 -976 -33 -113 -144 -221 -252 -246 l-53 -13 0 -163 0 -163 38 6 c268
44 477 216 566 464 l31 86 0 1005 c0 827 -2 1015 -14 1060 -57 225 -198 447
-363 573 -137 104 -321 186 -467 207 -38 6 -464 9 -1016 9 -902 0 -954 -1
-1023 -19z"/>
<path d="M975 3824 c-38 -8 -113 -36 -165 -61 -79 -39 -109 -61 -180 -132 -97
-98 -146 -185 -180 -316 -19 -76 -20 -109 -20 -1180 0 -1069 1 -1104 20 -1181
34 -135 81 -217 184 -320 103 -103 185 -150 320 -184 77 -19 112 -20 1181 -20
1071 0 1104 1 1180 20 131 34 218 83 316 180 71 71 93 101 132 180 81 167 78
106 75 1360 l-3 1105 -27 78 c-75 220 -235 380 -455 455 l-78 27 -1115 2
c-950 1 -1125 -1 -1185 -13z m2320 -337 c79 -37 156 -114 192 -191 l28 -61 0
-1090 c0 -908 -2 -1098 -14 -1139 -19 -64 -87 -155 -146 -194 -99 -65 -41 -63
-1242 -60 l-1088 3 -66 32 c-82 41 -131 90 -172 172 l-32 66 0 1110 0 1110 27
57 c45 96 151 182 255 207 22 5 510 9 1118 8 l1080 -2 60 -28z"/>
</g>
</svg>
